<?xml version="1.0" standalone="no"?>
<!DOCTYPE svg PUBLIC "-//W3C//DTD SVG 20010904//EN"
 "http://www.w3.org/TR/2001/REC-SVG-20010904/DTD/svg10.dtd">
<svg version="1.0" xmlns="http://www.w3.org/2000/svg"
 width="260.000000pt" height="260.000000pt" viewBox="0 0 260.000000 260.000000"
 preserveAspectRatio="xMidYMid meet">
<metadata>
Created by potrace 1.11, written by Peter Selinger 2001-2013
</metadata>
<g transform="translate(0.000000,260.000000) scale(0.100000,-0.100000)"
fill="#000000" stroke="none">
<path d="M2510 2520 c-81 -55 -770 -511 -930 -615 -41 -27 -121 -79 -178 -117
-57 -37 -105 -68 -107 -68 -4 0 -196 126 -870 572 -252 166 -376 248 -412 271
-10 6 -13 -66 -13 -352 l0 -360 263 -174 c144 -96 431 -286 637 -423 206 -136
384 -248 395 -248 11 0 146 83 300 185 154 102 395 261 535 353 140 93 303
200 362 240 l107 71 1 363 c0 199 -1 362 -2 361 -2 -1 -41 -27 -88 -59z"/>
<path d="M1 1198 l1 -373 291 -192 c161 -105 442 -291 626 -412 301 -199 339
-221 376 -221 44 0 24 -13 1138 723 l167 110 0 369 c0 202 -3 368 -6 368 -6 0
-266 -171 -972 -639 -169 -112 -312 -205 -318 -208 -11 -4 -85 43 -829 535
-203 135 -394 260 -422 279 l-53 34 1 -373z"/>
<path d="M0 289 l0 -289 438 0 437 0 -230 153 c-126 84 -323 213 -437 288
l-208 136 0 -288z"/>
<path d="M2485 510 c-55 -38 -251 -168 -435 -289 l-335 -221 443 0 442 0 0
290 c0 160 -3 289 -7 289 -5 -1 -53 -32 -108 -69z"/>
</g>
</svg>
